<?xml version="1.0" encoding="UTF-8"?>
<svg id="Layer_3" data-name="Layer 3" xmlns="http://www.w3.org/2000/svg" viewBox="0 0 95.18 113.3">
  <defs>
    <style>
      .cls-1 {
        fill: none;
        stroke: #f7cd82;
        stroke-linecap: round;
        stroke-linejoin: round;
        stroke-width: 4px;
      }

      .cls-2 {
        fill: #f79e6b;
        stroke-width: 0px;
      }
    </style>
  </defs>
  <circle class="cls-2" cx="48.91" cy="57.16" r="18.13"/>
  <path class="cls-1" d="M93.18,15.33s-19.93,18.56-29.76,21.62c-3.3,1.03.9-16.12.9-16.12h0c-1.61,5.09-9.82,14.09-12.65,14.03-2.15-.05-3.75-2.21-6.66-6.15-2.35-3.17-7.62-19.92-8.63-22.08,0,0,4.51,28.49,1.71,29.32-5.92,1.76-19.5-10-19.5-10,0,0,12.81,12.92,12.21,16.17-.61,3.25-28.78,1.85-28.78,1.85,0,0,22.41,8.32,22.41,12.32s-14.17,10.84-14.17,10.84c0,0,13.2-4.02,15.35,0,2.15,4.01-12.69,29.85-12.69,29.85,0,0,15.69-22.7,21.84-19.34,6.15,3.36,1.62,15.6,1.62,15.6,0,0,4.11-12.48,9.02-12.1,4.91.38,18.7,30.17,18.7,30.17,0,0-6.17-26.01-3.5-32.34,2.26-5.37,6.56,1.25,7.82,3.38.02.04.08,0,.06-.03-.99-2.31-3.96-10.03.12-10.68,4.81-.77,22.53,4.65,22.53,4.65,0,0-18.37-12.19-16.62-18.87,1.33-5.08,11.58-8.25,13.41-8.85.13-.04.13,0,0,0-2.42.03-16.94,1.18-17.41-2.29-.96-7.04,22.68-30.93,22.68-30.93Z"/>
</svg>